<svg xmlns="http://www.w3.org/2000/svg" viewBox="0 0 256.94 48"><title>smartline</title><g id="Layer_2" data-name="Layer 2"><g id="Layer_3" data-name="Layer 3"><g id="logotipo"><path d="M66.06,32.68A4.42,4.42,0,0,0,67,35.21q1.26,1.34,4.67,1.34A7.23,7.23,0,0,0,74.84,36a2,2,0,0,0,.23-3.47q-1-.59-7.07-2-4.41-1.08-6.21-2.7A5.81,5.81,0,0,1,60,23.19a7.92,7.92,0,0,1,2.82-6.08q2.82-2.54,7.93-2.54a14.7,14.7,0,0,1,7.9,1.91q3.05,1.91,3.51,6.6H75.38a3.92,3.92,0,0,0-.74-2,4.68,4.68,0,0,0-3.81-1.36,5.53,5.53,0,0,0-3.15.68,2,2,0,0,0-.94,1.59,1.74,1.74,0,0,0,1,1.66,43.66,43.66,0,0,0,7.06,1.85,13,13,0,0,1,6.06,2.84,6.4,6.4,0,0,1,2,4.8A7.72,7.72,0,0,1,80,39.3q-2.86,2.4-8.85,2.4t-9-2.54a8.22,8.22,0,0,1-2.91-6.48Z"/><path d="M117.65,15.39a7.51,7.51,0,0,1,3,2.3A7.3,7.3,0,0,1,122.14,21a22.4,22.4,0,0,1,.24,3.77l0,16.1H115.4V24.57a5.28,5.28,0,0,0-.47-2.39,3.38,3.38,0,0,0-3.32-1.78,3.89,3.89,0,0,0-3.87,2.3,7.13,7.13,0,0,0-.55,2.93V40.84h-6.81V25.63a8.45,8.45,0,0,0-.47-3.3,3.32,3.32,0,0,0-3.34-1.85q-2.89,0-3.89,1.85a7.05,7.05,0,0,0-.55,3.14V40.84H85.28V15.34h6.57v3.73a10.76,10.76,0,0,1,2.37-2.84,9.48,9.48,0,0,1,9.89-.21,7.51,7.51,0,0,1,2.23,3.07,8.53,8.53,0,0,1,3.3-3.3,10.15,10.15,0,0,1,4.65-1.05A9.09,9.09,0,0,1,117.65,15.39Z"/><path d="M137,25.23a10.8,10.8,0,0,0,2.7-.59,2,2,0,0,0,1.46-1.9A2.24,2.24,0,0,0,140,20.57a7.14,7.14,0,0,0-3.28-.6,4.34,4.34,0,0,0-3.44,1.17,4.81,4.81,0,0,0-1,2.34h-6.52A9.7,9.7,0,0,1,127.72,18q2.69-3.37,9.24-3.37a16.65,16.65,0,0,1,7.58,1.66q3.31,1.66,3.31,6.28V34.27q0,1.22,0,3a3.68,3.68,0,0,0,.4,1.78,2.42,2.42,0,0,0,1,.77v1h-7.35a7.41,7.41,0,0,1-.43-1.45q-.12-.68-.19-1.55a13.93,13.93,0,0,1-3.24,2.55,9.9,9.9,0,0,1-5,1.24,8.63,8.63,0,0,1-5.83-2A7,7,0,0,1,125,34a7.25,7.25,0,0,1,3.7-6.82,16.69,16.69,0,0,1,6-1.64Zm4.13,3.12a7.53,7.53,0,0,1-1.31.64,11.19,11.19,0,0,1-1.81.46l-1.54.28a10.2,10.2,0,0,0-3.11.91,3,3,0,0,0-1.6,2.84,3,3,0,0,0,1,2.47,3.74,3.74,0,0,0,2.37.76,7.12,7.12,0,0,0,4.08-1.27q1.87-1.27,1.94-4.62Z"/><path d="M165.1,14.7l.58,0v6.84q-.64-.07-1.14-.09l-.81,0q-4.08,0-5.48,2.63a10.1,10.1,0,0,0-.78,4.55V40.84h-6.81V15.29h6.45v4.45a14.14,14.14,0,0,1,2.73-3.49,7.48,7.48,0,0,1,4.93-1.57Z"/><path d="M167.56,20.29V15.53h3.61V8.4h6.69v7.13h4.2v4.76h-4.2v13.5a3,3,0,0,0,.4,2,4.48,4.48,0,0,0,2.47.39h.65l.68,0v5l-3.2.12q-4.79.16-6.55-1.64A4.85,4.85,0,0,1,171.17,36V20.29Z"/><path d="M190.87,40.84h-6.76V6.29h6.76Z" fill="#29abe2"/><path d="M195.13,15.29H202V40.84h-6.85Z" fill="#29abe2"/><circle cx="198.55" cy="10.4" r="3.17" fill="#29abe2"/><path d="M226.94,16.76q2.54,2.07,2.54,6.88v17.2h-6.92V25.3a7.06,7.06,0,0,0-.54-3.09,3.81,3.81,0,0,0-3.77-2,4.67,4.67,0,0,0-4.69,2.88A9.86,9.86,0,0,0,212.9,27V40.84h-6.76V15.34h6.55v3.73a11.35,11.35,0,0,1,2.46-2.84,8.58,8.58,0,0,1,5.27-1.55A10,10,0,0,1,226.94,16.76Z" fill="#29abe2"/><path d="M250.18,15.81a10.48,10.48,0,0,1,4.47,3.78,12.47,12.47,0,0,1,2.06,5.28,32.33,32.33,0,0,1,.22,5.07H238.11q.16,3.84,2.7,5.39a6.93,6.93,0,0,0,3.73,1,5.77,5.77,0,0,0,3.75-1.17,5.62,5.62,0,0,0,1.39-1.76h6.9a8.31,8.31,0,0,1-2.5,4.62q-3.47,3.73-9.73,3.73a14.2,14.2,0,0,1-9.11-3.14q-3.94-3.14-3.95-10.23,0-6.64,3.56-10.18a12.54,12.54,0,0,1,9.24-3.54A14.87,14.87,0,0,1,250.18,15.81Zm-10.11,5.77a6.9,6.9,0,0,0-1.8,4h11.64a5.54,5.54,0,0,0-1.8-4,6,6,0,0,0-4-1.38A5.4,5.4,0,0,0,240.07,21.58Z" fill="#29abe2"/><path d="M51.38,24,39.55,44.5H15.88L4,24,15.88,3.5H39.55ZM32.94,3.67,23,24.34h9.92L23,44.33" fill="#fff"/><path d="M51.38,24,39.55,44.5H15.88L4,24,15.88,3.5H39.55ZM32.94,3.67,23,24.34h9.92L23,44.33" fill="none" stroke="#29abe2" stroke-miterlimit="10" stroke-width="7"/></g></g></g></svg>