<svg xmlns="http://www.w3.org/2000/svg" viewBox="0 0 397.63 221.59"><title>smartline-vertical</title><g id="Layer_2" data-name="Layer 2"><g id="Layer_3" data-name="Layer 3"><g id="logotipo"><path d="M13.78,203.44q.43,3.58,1.87,5.09,2.54,2.69,9.39,2.69a14.53,14.53,0,0,0,6.4-1.18,3.93,3.93,0,0,0,.46-7Q30,201.89,17.68,199q-8.86-2.17-12.48-5.42t-3.63-9.24a15.93,15.93,0,0,1,5.66-12.23Q12.9,167,23.18,167q9.75,0,15.89,3.84t7,13.27H32.53A7.88,7.88,0,0,0,31,180q-2.25-2.73-7.65-2.73-4.45,0-6.33,1.37a3.92,3.92,0,0,0-1.89,3.2,3.5,3.5,0,0,0,2,3.35q2,1.08,14.19,3.72,8.12,1.89,12.18,5.7a12.87,12.87,0,0,1,4,9.66,15.52,15.52,0,0,1-5.76,12.47Q36,221.59,24,221.59q-12.28,0-18.14-5.11a16.53,16.53,0,0,1-5.85-13Z"/><path d="M117.54,168.66a15.1,15.1,0,0,1,6.06,4.62,14.69,14.69,0,0,1,3,6.6,45.05,45.05,0,0,1,.48,7.59l-.09,32.38H113V187.14a10.62,10.62,0,0,0-1-4.81q-1.81-3.58-6.68-3.58-5.63,0-7.77,4.62a14.33,14.33,0,0,0-1.1,5.89v30.59H82.82V189.26a17,17,0,0,0-1-6.65q-1.72-3.72-6.72-3.72-5.82,0-7.82,3.72a14.18,14.18,0,0,0-1.1,6.32v30.92H52.44V168.57H65.65v7.49a21.64,21.64,0,0,1,4.77-5.7,16.45,16.45,0,0,1,10.25-3q6,0,9.63,2.59a15.1,15.1,0,0,1,4.48,6.17,17.16,17.16,0,0,1,6.63-6.65,20.42,20.42,0,0,1,9.35-2.12A18.28,18.28,0,0,1,117.54,168.66Z"/><path d="M156.4,188.45a21.71,21.71,0,0,0,5.43-1.18q2.93-1.23,2.93-3.82,0-3.16-2.25-4.36a14.35,14.35,0,0,0-6.6-1.2q-4.88,0-6.91,2.36a9.67,9.67,0,0,0-1.93,4.71H134a19.5,19.5,0,0,1,3.83-11.08q5.41-6.79,18.58-6.79a33.47,33.47,0,0,1,15.23,3.35q6.66,3.35,6.66,12.63v23.56q0,2.45.09,5.94a7.4,7.4,0,0,0,.81,3.58,4.87,4.87,0,0,0,2,1.56v2H166.38a14.89,14.89,0,0,1-.86-2.92q-.24-1.37-.38-3.11a28,28,0,0,1-6.52,5.14,19.9,19.9,0,0,1-10,2.5,17.35,17.35,0,0,1-11.73-4q-4.63-4-4.63-11.29,0-9.47,7.45-13.71,4.09-2.31,12-3.3Zm8.31,6.27a15.15,15.15,0,0,1-2.64,1.3,22.49,22.49,0,0,1-3.65.92l-3.09.57a20.51,20.51,0,0,0-6.25,1.84,6.12,6.12,0,0,0-3.21,5.7q0,3.44,2,5a7.52,7.52,0,0,0,4.77,1.53,14.32,14.32,0,0,0,8.21-2.54q3.75-2.54,3.9-9.28Z"/><path d="M213,167.27l1.17.07V181.1q-1.29-.14-2.29-.19c-.67,0-1.21,0-1.62,0q-8.2,0-11,5.28-1.58,3-1.57,9.14v24.55H183.93V168.47h13v9a28.44,28.44,0,0,1,5.48-7,15,15,0,0,1,9.92-3.16Z"/><path d="M217.9,178.51v-9.57h7.25V154.62h13.45v14.33H247v9.57h-8.44v27.15q0,3.16.81,3.94t5,.78l1.31,0,1.36-.07v10l-6.44.24q-9.63.33-13.16-3.3-2.29-2.31-2.29-7.12V178.51Z"/><path d="M264.76,219.85H251.17V150.38h13.59Z" fill="#29abe2"/><path d="M273.32,168.47h13.78v51.37H273.32Z" fill="#29abe2"/><circle cx="280.22" cy="158.64" r="6.37" fill="#29abe2"/><path d="M337.3,171.42q5.11,4.17,5.11,13.83v34.59H328.48V188.6a14.19,14.19,0,0,0-1.09-6.22q-2-4-7.57-4-6.87,0-9.42,5.8a19.83,19.83,0,0,0-1.33,7.82v27.81H295.48V168.57h13.16v7.49a22.83,22.83,0,0,1,4.94-5.7,17.25,17.25,0,0,1,10.59-3.11Q332.2,167.25,337.3,171.42Z" fill="#29abe2"/><path d="M384,169.52a21.07,21.07,0,0,1,9,7.6,25.08,25.08,0,0,1,4.14,10.62,65,65,0,0,1,.45,10.2H359.75q.32,7.73,5.44,10.84a13.93,13.93,0,0,0,7.49,1.93,11.59,11.59,0,0,0,7.55-2.36,11.3,11.3,0,0,0,2.8-3.53H396.9q-.55,4.57-5,9.28-7,7.49-19.56,7.49A28.54,28.54,0,0,1,354,215.27q-7.93-6.32-7.93-20.57,0-13.35,7.16-20.47t18.59-7.12A29.91,29.91,0,0,1,384,169.52Zm-20.33,11.6a13.88,13.88,0,0,0-3.62,8H383.5q-.37-5.35-3.62-8.12a12,12,0,0,0-8.06-2.77Q366.58,178.18,363.7,181.12Z" fill="#29abe2"/><polygon points="228.39 8 169.24 8 139.66 59.22 169.24 110.45 228.39 110.45 257.96 59.22 228.39 8" fill="#fff" stroke="#29abe2" stroke-miterlimit="10" stroke-width="16"/><polyline points="211.87 8.84 187.1 60.47 211.87 60.47 187.1 110.42" fill="#fff" stroke="#29abe2" stroke-miterlimit="10" stroke-width="16"/></g></g></g></svg>